<?xml version="1.0" standalone="no"?>
<!DOCTYPE svg PUBLIC "-//W3C//DTD SVG 20010904//EN"
 "http://www.w3.org/TR/2001/REC-SVG-20010904/DTD/svg10.dtd">
<svg version="1.0" xmlns="http://www.w3.org/2000/svg"
 width="250.000000pt" height="379.000000pt" viewBox="0 0 250.000000 379.000000"
 preserveAspectRatio="xMidYMid meet">

<g transform="translate(0.000000,379.000000) scale(0.100000,-0.100000)"
fill="#000000" stroke="none">
<path d="M453 3581 c-60 -22 -122 -63 -180 -119 -52 -51 -68 -82 -77 -149 -8
-63 9 -102 105 -236 82 -116 245 -271 689 -656 191 -167 592 -470 830 -629
179 -119 398 -248 406 -239 3 3 8 33 11 66 6 59 5 61 -23 71 -49 19 -201 108
-354 208 -312 203 -692 491 -1147 868 -238 198 -342 293 -383 350 -19 27 -27
43 -17 35 14 -11 18 -11 23 5 47 138 146 211 322 237 86 13 80 18 117 -98 40
-126 56 -259 53 -439 l-2 -159 35 -31 34 -30 3 179 c5 337 -57 594 -177 726
-29 32 -46 41 -90 49 -77 14 -119 12 -178 -9z m209 -43 l15 -23 -81 0 c-106
-1 -175 -33 -265 -122 -42 -42 -67 -61 -74 -54 -23 23 82 139 161 177 55 27
121 43 178 43 43 1 54 -3 66 -21z m41 -73 c5 -10 -4 -16 -31 -20 -137 -21
-233 -65 -304 -137 -42 -44 -68 -54 -68 -28 0 26 83 109 141 140 102 54 249
80 262 45z"/>
<path d="M750 3542 c0 -5 12 -19 26 -33 136 -124 186 -304 187 -664 0 -104 -3
-203 -7 -220 -5 -26 -2 -34 30 -58 19 -16 37 -27 40 -25 2 3 5 108 5 234 3
362 -42 555 -158 684 -43 48 -123 101 -123 82z"/>
<path d="M932 3432 c97 -105 150 -247 163 -433 4 -52 2 -186 -4 -299 l-11
-205 32 -27 c18 -16 36 -28 40 -28 4 0 8 137 8 305 0 339 -8 410 -60 523 -34
72 -118 166 -182 202 l-43 24 57 -62z"/>
<path d="M191 3138 c-2 -146 103 -294 474 -663 352 -350 776 -698 1185 -970
151 -101 314 -195 338 -195 5 0 14 27 19 60 l10 60 -82 43 c-287 153 -865 573
-1201 874 -472 421 -664 636 -730 813 l-13 35 0 -57z"/>
<path d="M181 2993 c-2 -167 37 -253 208 -457 217 -260 562 -601 856 -846 217
-181 696 -529 800 -582 22 -11 48 -29 58 -39 10 -11 21 -19 26 -19 12 0 29 42
36 92 l7 44 -53 24 c-149 70 -504 315 -814 564 -309 248 -675 598 -903 863
-135 158 -175 226 -202 347 l-18 81 -1 -72z"/>
<path d="M1172 2428 c2 -6 10 -14 16 -16 7 -2 10 2 6 12 -7 18 -28 22 -22 4z"/>
<path d="M730 2064 c-24 -117 -80 -345 -160 -649 -141 -531 -139 -516 -92
-581 16 -21 36 -45 44 -52 14 -11 17 -7 23 30 14 91 39 206 125 578 49 212
102 447 118 522 l29 137 -38 37 -37 36 -12 -58z"/>
<path d="M876 1969 c-3 -13 -12 -67 -21 -119 -9 -52 -61 -320 -115 -595 -54
-275 -100 -520 -102 -543 -3 -43 -2 -45 58 -93 l62 -49 11 82 c7 46 39 254 71
463 33 209 73 474 90 589 l31 210 -40 40 c-39 39 -40 39 -45 15z"/>
<path d="M1020 1849 c0 -9 -22 -189 -50 -401 -27 -211 -66 -513 -85 -671 l-36
-288 48 -54 c26 -29 50 -52 52 -49 5 5 70 548 121 1019 l40 370 -45 45 c-29
29 -45 39 -45 29z"/>
<path d="M1122 1748 c5 -15 28 -23 28 -10 0 5 -7 13 -16 16 -10 4 -14 1 -12
-6z"/>
</g>
</svg>
